<?xml version="1.0" encoding="UTF-8"?><svg id="Layer_2" xmlns="http://www.w3.org/2000/svg" viewBox="0 0 965.25 235.17"><defs><style>.cls-1{fill:#0ab0bf;}</style></defs><g id="Layer_1-2"><g><path class="cls-1" d="M5.23,209.04c-3.49,0-5.23-1.74-5.23-5.23v-30.05c0-3.48,1.74-5.23,5.23-5.23h31.88c3.48,0,5.23,1.74,5.23,5.23v30.05c0,3.49-1.74,5.23-5.23,5.23H5.23Z"/><path class="cls-1" d="M85.71,209.04c-3.49,0-5.23-1.74-5.23-5.23v-30.05c0-3.48,1.74-5.23,5.23-5.23h31.88c3.48,0,5.23,1.74,5.23,5.23v30.05c0,3.49-1.74,5.23-5.23,5.23h-31.88Z"/><path d="M156.26,235.17c-3.48,0-5.23-1.4-5.23-4.18,0-1.22,.18-2.18,.52-2.87L226.02,4.7c1.05-3.14,3.31-4.7,6.79-4.7h18.55c3.48,0,5.23,1.4,5.23,4.18,0,.52-.18,1.48-.52,2.87l-74.47,223.42c-1.04,3.14-3.31,4.7-6.79,4.7h-18.55Z"/><path d="M306.24,209.04c-3.49,0-5.23-1.74-5.23-5.23V31.36c0-3.48,1.74-5.23,5.23-5.23h39.72c1.91,0,3.44,.35,4.57,1.05,1.13,.7,2.13,1.83,3,3.4l68.98,119.42h2.09V31.36c0-3.48,1.74-5.23,5.23-5.23h29.27c3.48,0,5.23,1.74,5.23,5.23V203.82c0,3.49-1.74,5.23-5.23,5.23h-39.72c-1.92,0-3.44-.35-4.57-1.04-1.14-.69-2.14-1.92-3-3.66l-68.98-119.42h-1.83v118.89c0,3.49-1.74,5.23-5.23,5.23h-29.53Z"/><path d="M669.46,175.07c3.48,0,5.23,1.74,5.23,5.23v23.52c0,3.49-1.74,5.23-5.23,5.23h-129.35c-3.49,0-5.23-1.74-5.23-5.23V31.36c0-3.48,1.74-5.23,5.23-5.23h126.73c3.48,0,5.23,1.74,5.23,5.23v23.52c0,3.49-1.74,5.23-5.23,5.23h-91.46v40.5h64.02c3.48,0,5.23,1.74,5.23,5.23v22.21c0,3.49-1.74,5.23-5.23,5.23h-64.02v41.81h94.07Z"/><path d="M764.31,209.04c-1.74,0-3.09-.35-4.05-1.04-.96-.69-1.7-2-2.22-3.92l-43.12-172.46c-.17-.52-.26-1.22-.26-2.09,0-2.26,1.65-3.4,4.96-3.4h30.57c2.09,0,3.66,.31,4.7,.91,1.05,.61,1.74,1.79,2.09,3.53l28.22,128.04h2.09l31.62-127.78c.35-1.74,1-2.96,1.96-3.66,.96-.69,2.39-1.05,4.31-1.05h29.53c1.92,0,3.35,.35,4.31,1.05,.96,.7,1.61,1.92,1.96,3.66l31.62,127.78h2.09l14.89-66.37,13.85-61.15c.35-1.91,1-3.22,1.96-3.92,.96-.69,2.39-1.05,4.31-1.05h30.83c3.14,0,4.7,1.22,4.7,3.66,0,.87-.09,1.57-.26,2.09l-43.12,172.2c-.52,1.92-1.27,3.23-2.22,3.92-.96,.7-2.31,1.04-4.05,1.04h-39.46c-1.92,0-3.36-.35-4.31-1.04-.96-.69-1.61-2-1.96-3.92l-29-116.02h-1.83l-29,116.02c-.35,1.92-1,3.23-1.96,3.92-.96,.7-2.4,1.04-4.31,1.04h-39.46Z"/></g></g></svg>
